Coordinates
version=1
nRows=19
nColumns=63
inDegrees=yes

Units are S.I. units (second, meters, Newtons, ...)
If the header above contains a line with 'inDegrees', this indicates whether rotational values are in degrees (yes) or radians (no).

endheader
time	pelvis_tilt	pelvis_list	pelvis_rotation	pelvis_tx	pelvis_ty	pelvis_tz	hip_flexion_r	hip_adduction_r	hip_rotation_r	knee_angle_r	knee_angle_r_beta	ankle_angle_r	subtalar_angle_r	mtp_angle_r	hip_flexion_l	hip_adduction_l	hip_rotation_l	knee_angle_l	knee_angle_l_beta	ankle_angle_l	subtalar_angle_l	mtp_angle_l	L5_S1_Flex_Ext	L5_S1_Lat_Bending	L5_S1_axial_rotation	L4_L5_Flex_Ext	L4_L5_Lat_Bending	L4_L5_axial_rotation	L3_L4_Flex_Ext	L3_L4_Lat_Bending	L3_L4_axial_rotation	L2_L3_Flex_Ext	L2_L3_Lat_Bending	L2_L3_axial_rotation	L1_L2_Flex_Ext	L1_L2_Lat_Bending	L1_L2_axial_rotation	L1_T12_Flex_Ext	L1_T12_Lat_Bending	L1_T12_axial_rotation	Abs_r3	Abs_r2	Abs_r1	Abs_t1	Abs_t2	neck_flexion	neck_bending	neck_rotation	arm_flex_r	arm_add_r	arm_rot_r	elbow_flex_r	pro_sup_r	wrist_flex_r	wrist_dev_r	arm_flex_l	arm_add_l	arm_rot_l	elbow_flex_l	pro_sup_l	wrist_flex_l	wrist_dev_l
0.000000	-0.572195	-3.487005	108.352216	0.370512	0.845000	0.643757	3.456190	1.349539	-5.431269	0.695367	0.012136	27.098571	-12.394190	0.000000	20.515548	-1.388363	11.303690	21.078844	0.367895	39.376076	19.068736	0.000000	0.382040	-0.183083	-3.741775	0.709487	-0.243500	-3.975636	0.627654	-0.445148	-3.975636	0.436634	-0.445148	-3.274053	0.354763	-0.373343	-3.040192	0.218298	-0.283596	-2.806331	2.728875	-2.071072	-20.810630	0.000000	0.000000	28.276803	-9.596963	-3.350924	7.909245	-6.500919	56.973052	36.900087	46.447454	8.033737	8.816788	3.890103	-10.573891	48.238109	49.447889	61.298133	2.249031	8.067842
0.016949	-1.386081	-3.530242	106.928086	0.372000	0.846076	0.642422	3.453345	0.547760	-3.733142	0.909850	0.015880	27.770329	-12.208173	0.000000	19.740050	-0.989212	10.025902	20.223785	0.352972	39.226452	19.010310	0.000000	0.384482	-0.272055	-3.469287	0.714022	-0.361834	-3.686117	0.631666	-0.661476	-3.686117	0.439425	-0.661476	-3.035626	0.357030	-0.554776	-2.818795	0.219693	-0.421414	-2.601965	2.746317	-3.077546	-19.295132	0.000000	0.000000	28.260500	-9.690923	-3.209454	8.328501	-6.342729	58.197413	36.522516	42.384715	8.050136	8.419210	4.045973	-10.854668	49.432619	49.032130	60.190682	2.107094	7.229662
0.033898	-2.049707	-3.540980	105.698649	0.373214	0.846950	0.641324	3.441639	-0.099462	-2.234300	1.096877	0.019144	28.272698	-12.132854	0.000000	19.067848	-0.691366	8.851490	19.537327	0.340991	39.103109	18.960553	0.000000	0.383110	-0.343550	-3.235517	0.711473	-0.456922	-3.437737	0.629411	-0.835308	-3.437737	0.437856	-0.835308	-2.831078	0.355756	-0.700568	-2.628858	0.218909	-0.532159	-2.426638	2.736516	-3.886310	-17.994977	0.000000	0.000000	28.243290	-9.794077	-3.138291	8.759896	-6.234618	59.577111	36.195936	38.750767	8.160416	7.941799	4.131969	-11.079652	50.290696	48.757310	59.355755	1.975821	6.618227
0.050847	-2.576787	-3.522703	104.648114	0.374178	0.847640	0.640441	3.421430	-0.606410	-0.919427	1.257450	0.021947	28.621353	-12.156280	0.000000	18.491258	-0.484485	7.776667	19.004640	0.331694	39.005724	18.918906	0.000000	0.378306	-0.399186	-3.037341	0.702552	-0.530917	-3.227175	0.621519	-0.970581	-3.227175	0.432366	-0.970581	-2.657673	0.351295	-0.814020	-2.467839	0.216164	-0.618339	-2.278006	2.702201	-4.515673	-16.892778	0.000000	0.000000	28.225423	-9.904316	-3.130155	9.195240	-6.170946	61.072908	35.917457	35.526407	8.348748	7.396468	4.155865	-11.253826	50.846456	48.608370	58.765613	1.854237	6.207464
0.067797	-2.981034	-3.478890	103.760689	0.374915	0.848163	0.639751	3.393076	-0.987370	0.226791	1.392572	0.024305	28.831968	-12.266501	0.000000	18.002594	-0.358230	6.797647	18.610896	0.324821	38.933972	18.884811	0.000000	0.370452	-0.440581	-2.871630	0.687966	-0.585973	-3.051107	0.608615	-1.071230	-3.051107	0.423389	-1.071230	-2.512677	0.344002	-0.898434	-2.333200	0.211676	-0.682461	-2.153723	2.646101	-4.983945	-15.971147	0.000000	0.000000	28.207154	-10.019533	-3.177765	9.626342	-6.146073	62.645565	35.684191	32.692429	8.599305	6.795128	4.125436	-11.382172	51.134015	48.570250	58.392518	1.741367	5.971299
0.084746	-3.276159	-3.413023	103.020583	0.375451	0.848535	0.639232	3.356937	-1.256626	1.219672	1.503244	0.026237	28.920218	-12.451564	0.000000	17.594171	-0.302260	5.910641	18.341266	0.320115	38.887530	18.857709	0.000000	0.359930	-0.469355	-2.735260	0.668426	-0.624242	-2.906214	0.591329	-1.141189	-2.906214	0.411364	-1.141189	-2.393353	0.334231	-0.957108	-2.222399	0.205664	-0.727031	-2.051445	2.570946	-5.309435	-15.212697	0.000000	0.000000	28.188733	-10.137619	-3.273839	10.045013	-6.154361	64.255843	35.493249	30.229629	8.896256	6.149691	4.048457	-11.469673	51.187486	48.627891	58.208732	1.636234	5.883658
0.101695	-3.475877	-3.328581	102.412005	0.375808	0.848775	0.638862	3.313370	-1.428465	2.074529	1.590469	0.027759	28.901778	-12.699519	0.000000	17.258304	-0.306235	5.111863	18.180921	0.317317	38.866072	18.837041	0.000000	0.347123	-0.487125	-2.625104	0.644642	-0.647876	-2.789173	0.570289	-1.184396	-2.789173	0.396727	-1.184396	-2.296966	0.322338	-0.993345	-2.132897	0.198346	-0.754557	-1.968828	2.479465	-5.510455	-14.600041	0.000000	0.000000	28.170413	-10.256466	-3.411097	10.443063	-6.190169	65.864504	35.341743	28.118802	9.223772	5.472071	3.932700	-11.521310	51.040987	48.766233	58.186516	1.537864	5.918468
0.118644	-3.593899	-3.229047	101.919163	0.376012	0.848898	0.638621	3.262735	-1.517170	2.806678	1.655249	0.028890	28.792322	-12.998414	0.000000	16.987307	-0.359816	4.397525	18.115033	0.316167	38.869274	18.822249	0.000000	0.332412	-0.495510	-2.538035	0.617323	-0.659029	-2.696662	0.546120	-1.204784	-2.696662	0.379914	-1.204784	-2.220781	0.308678	-1.010445	-2.062154	0.189940	-0.767546	-1.903526	2.374389	-5.605312	-14.115791	0.000000	0.000000	28.152448	-10.373967	-3.582257	10.812301	-6.247859	67.432309	35.226785	26.340743	9.566026	4.774179	3.785941	-11.542067	50.728631	48.970217	58.298133	1.445281	6.049657
0.135593	-3.643939	-3.117901	101.526266	0.376085	0.848923	0.638485	3.205388	-1.537027	3.431435	1.698585	0.029646	28.607524	-13.336297	0.000000	16.773496	-0.452662	3.763839	18.128773	0.316407	38.896812	18.812774	0.000000	0.316181	-0.496130	-2.470928	0.587179	-0.659852	-2.625361	0.519453	-1.206289	-2.625361	0.361363	-1.206289	-2.162062	0.293605	-1.011707	-2.007629	0.180666	-0.768505	-1.853196	2.258446	-5.612317	-13.742559	0.000000	0.000000	28.135088	-10.488013	-3.780039	11.144537	-6.321790	68.920018	35.145484	24.876249	9.907187	4.067926	3.615953	-11.536926	50.284535	49.224785	58.515844	1.357509	6.251149
0.152542	-3.639709	-2.998623	101.217523	0.376053	0.848866	0.638433	3.141690	-1.502321	3.964115	1.721480	0.030045	28.363061	-13.701216	0.000000	16.609185	-0.574434	3.207019	18.207311	0.317778	38.948362	18.808058	0.000000	0.298809	-0.490601	-2.420655	0.554919	-0.652500	-2.571946	0.490914	-1.192848	-2.571946	0.341509	-1.192848	-2.118073	0.277474	-1.000434	-1.966782	0.170740	-0.759941	-1.815491	2.134366	-5.549780	-13.462958	0.000000	0.000000	28.118587	-10.596497	-3.997161	11.431581	-6.406325	70.288394	35.094954	23.706114	10.231428	3.365227	3.430510	-11.510870	49.742813	49.514875	58.811911	1.273573	6.496873
0.169492	-3.594922	-2.874696	100.977142	0.375939	0.848744	0.638444	3.071998	-1.427336	4.420034	1.724936	0.030106	28.074605	-14.081221	0.000000	16.486688	-0.714791	2.723277	18.335819	0.320020	39.023598	18.807542	0.000000	0.280681	-0.480544	-2.384091	0.521253	-0.639123	-2.533097	0.461131	-1.168395	-2.533097	0.320791	-1.168395	-2.086080	0.260641	-0.979925	-1.937074	0.160381	-0.744363	-1.788068	2.004879	-5.436009	-13.259600	0.000000	0.000000	28.103196	-10.697309	-4.226342	11.665243	-6.495823	71.498196	35.072305	22.811133	10.522918	2.677991	3.237387	-11.468880	49.137580	49.825430	59.158596	1.192498	6.760754
0.186441	-3.530339	-2.760110	100.781422	0.375787	0.848569	0.638449	3.006236	-1.336055	4.848247	1.706616	0.029786	27.824175	-14.436929	0.000000	16.408535	-0.846537	2.361224	18.482933	0.322588	39.189372	18.814886	0.000000	0.263648	-0.468736	-2.355595	0.489621	-0.623419	-2.502820	0.433148	-1.139686	-2.502820	0.301324	-1.139686	-2.061146	0.244824	-0.955847	-1.913921	0.150649	-0.726073	-1.766696	1.883214	-5.302440	-13.101113	0.000000	0.000000	28.091820	-10.829143	-4.495137	11.815513	-6.601365	72.429045	35.088658	22.304532	10.667262	2.064479	3.069496	-11.426605	48.717283	50.057425	59.431546	1.144695	7.017545
0.203390	-3.466486	-2.651631	100.612188	0.375617	0.848381	0.638436	2.928070	-1.247149	5.213743	1.666527	0.029086	27.556228	-14.751131	0.000000	16.343561	-0.968606	2.059696	18.632480	0.325198	39.371259	18.822891	0.000000	0.247324	-0.457486	-2.332201	0.459305	-0.608456	-2.477964	0.406328	-1.112331	-2.477964	0.282666	-1.112331	-2.040676	0.229665	-0.932905	-1.894914	0.141321	-0.708646	-1.749151	1.766610	-5.175171	-12.971004	0.000000	0.000000	28.081165	-10.917164	-4.750418	11.808477	-6.665049	72.816211	35.124050	22.102496	10.764161	1.547414	2.901849	-11.373014	48.210566	50.304910	59.760451	1.078003	7.150496
0.220339	-3.421166	-2.542937	100.427198	0.375472	0.848204	0.638415	2.835205	-1.176383	5.571474	1.609726	0.028095	27.275649	-15.033611	0.000000	16.278179	-1.075711	1.775821	18.780401	0.327780	39.561380	18.834767	0.000000	0.229868	-0.448320	-2.305797	0.426889	-0.596265	-2.449909	0.377651	-1.090044	-2.449909	0.262717	-1.090044	-2.017572	0.213456	-0.914213	-1.873460	0.131347	-0.694447	-1.729347	1.641928	-5.071481	-12.824149	0.000000	0.000000	28.071137	-10.974059	-4.991270	11.697314	-6.702719	72.824846	35.175467	22.079654	10.787998	1.089218	2.763045	-11.318810	47.710609	50.538245	60.083395	0.987529	7.122215
0.237288	-3.389827	-2.438791	100.239112	0.375349	0.848045	0.638383	2.732146	-1.120861	5.980822	1.534156	0.026776	26.962375	-15.391652	0.000000	16.218554	-1.164504	1.528315	18.921728	0.330246	39.748372	18.845978	0.000000	0.212558	-0.440600	-2.283257	0.394741	-0.585997	-2.425960	0.349211	-1.071274	-2.425960	0.242932	-1.071274	-1.997850	0.197381	-0.898471	-1.855146	0.121455	-0.682489	-1.712442	1.518277	-4.984151	-12.698788	0.000000	0.000000	28.062941	-10.980350	-5.144135	11.556983	-6.732512	72.753317	35.239870	21.997686	10.686403	0.584604	2.629874	-11.261734	47.208374	50.744664	60.349625	0.867927	6.967905
0.254237	-3.397767	-2.342919	100.012446	0.375304	0.847917	0.638322	2.623175	-1.105956	6.508765	1.443678	0.025197	26.622867	-15.858346	0.000000	16.149028	-1.218155	1.290115	19.033634	0.332200	39.912032	18.850761	0.000000	0.195612	-0.437365	-2.256885	0.363271	-0.581695	-2.397940	0.321371	-1.063409	-2.397940	0.223565	-1.063409	-1.974774	0.181645	-0.891874	-1.833719	0.111773	-0.677478	-1.692664	1.397238	-4.947558	-12.552116	0.000000	0.000000	28.056624	-10.943501	-5.215598	11.391235	-6.734750	72.564157	35.293786	21.963377	10.531191	0.093041	2.517639	-11.224706	46.775427	50.918331	60.499569	0.739004	6.740639
0.271186	-3.430320	-2.263565	99.802008	0.375265	0.847816	0.638246	2.519289	-1.122528	6.830092	1.354604	0.023642	26.392425	-16.045927	0.000000	16.093221	-1.237540	1.094578	19.134133	0.333954	40.056631	18.862282	0.000000	0.179574	-0.436877	-2.229238	0.333486	-0.581046	-2.368565	0.295022	-1.062223	-2.368565	0.205235	-1.062223	-1.950583	0.166752	-0.890880	-1.811256	0.102608	-0.676722	-1.671928	1.282677	-4.942040	-12.398352	0.000000	0.000000	28.053366	-10.891889	-5.230397	11.152519	-6.711582	72.062096	35.347693	22.175993	10.313832	-0.327877	2.455989	-11.199369	46.502820	51.028871	60.534537	0.615821	6.446094
0.288136	-3.497135	-2.201335	99.571713	0.375272	0.847755	0.638119	2.425537	-1.181313	6.974910	1.273122	0.022220	26.269831	-15.952002	0.000000	16.028771	-1.218767	0.935840	19.185803	0.334855	40.166628	18.867095	0.000000	0.165634	-0.439836	-2.194523	0.307600	-0.584982	-2.331681	0.272121	-1.069417	-2.331681	0.189303	-1.069417	-1.920208	0.153808	-0.896913	-1.783050	0.094643	-0.681306	-1.645892	1.183109	-4.975510	-12.205279	0.000000	0.000000	28.052870	-10.838898	-5.167659	10.852377	-6.674341	71.296124	35.420527	22.615562	10.015264	-0.641868	2.425445	-11.180248	46.359294	51.083214	60.396404	0.483891	6.167266
0.305085	-3.620258	-2.155185	99.341702	0.375335	0.847738	0.637943	2.325015	-1.298335	7.305257	1.176128	0.020527	26.133321	-16.114008	0.000000	15.960348	-1.136800	0.811871	19.208557	0.335253	40.235783	18.869355	0.000000	0.154129	-0.449910	-2.160559	0.286234	-0.598381	-2.295594	0.253219	-1.093912	-2.295594	0.176154	-1.093912	-1.890489	0.143125	-0.917457	-1.755454	0.088070	-0.696911	-1.620419	1.100931	-5.089475	-12.016379	0.000000	0.000000	28.055006	-10.756553	-5.043205	10.581643	-6.602310	70.602602	35.461337	22.945078	9.670962	-0.914851	2.400180	-11.193567	46.288167	51.105660	60.155436	0.377203	5.934960
